<?xml version="1.0" standalone="no"?><!DOCTYPE svg PUBLIC "-//W3C//DTD SVG 1.1//EN" "http://www.w3.org/Graphics/SVG/1.1/DTD/svg11.dtd"><svg class="icon" width="200px" height="200.00px" viewBox="0 0 1024 1024" version="1.1" xmlns="http://www.w3.org/2000/svg"><path d="M887.221691 959.489633V116.200319L753.873046 0 310.139713 165.848804v41.482615L713.125359 71.451356v948.874003h268.248804v-60.835726h-94.152472zM165.685486 699.733333l211.332696-42.299202V550.216268l-211.332696 55.527911v93.989154z m0 322.061882h211.332696v-112.525678l-211.332696 15.351835v97.173843z m0-161.602552l211.332696-20.414673v-106.972886l-211.332696 35.521531v91.866028z m0-324.103349l211.332696-58.140989V366.565869l-211.332696 71.533015v97.99043z m445.693142-276.904625l-119.303349-72.512919L42.870813 348.682616 42.625837 1024h59.202552V381.346093l336.107177-110.729187v749.953429h173.524721l-0.081659-761.385646z m0 0" /></svg>
