<?xml version="1.0" standalone="no"?><!DOCTYPE svg PUBLIC "-//W3C//DTD SVG 1.1//EN" "http://www.w3.org/Graphics/SVG/1.1/DTD/svg11.dtd"><svg class="icon" width="200px" height="200.00px" viewBox="0 0 1024 1024" version="1.1" xmlns="http://www.w3.org/2000/svg"><path d="M908.16323214 111.6942454H132.82110998c-64.0710142 0-115.99062914 51.91961495-115.99062912 115.99062913V749.50462157c0 64.0710142 51.91961495 115.85254505 115.99062912 115.85254504H908.30131621c64.0710142 0 115.99062914-51.91961495 115.99062913-115.85254504V227.68487453c-0.13808409-64.0710142-52.05769902-115.99062914-116.1287132-115.99062913zM661.95931339 341.8804106h161.00603995c12.84181965 0 24.57896666 17.39859437 24.57896666 30.24041403 0 12.84181965-11.737147 30.24041403-24.57896666 30.24041403H661.95931339c-12.84181965 0-24.57896666-17.39859437-24.57896666-30.24041403 0-12.84181965 11.737147-30.24041403 24.57896666-30.24041403z m0 129.10861695h161.00603995c12.84181965 0 24.57896666 17.39859437 24.57896666 30.24041403s-11.737147 30.24041403-24.57896666 30.24041403H661.95931339c-12.84181965 0-24.57896666-17.39859437-24.57896666-30.24041403 0-12.84181965 11.737147-30.24041403 24.57896666-30.24041403zM136.27321205 695.3756613c-12.56565149-2.48551348-20.85069643-14.49882864-18.36518295-27.20256421 14.91308089-78.15559058 73.3226477-138.36025047 146.92146358-159.48711506-38.11120672-20.43644418-64.48526643-60.34274397-64.48526644-106.60091154 0-66.97077991 54.54321251-121.37590835 121.37590834-121.37590836S442.95795885 335.25237466 442.95795885 402.08507049c0 46.39625165-26.37405971 86.16446736-64.48526643 106.60091154 73.73689995 21.12686459 132.14646676 81.60769264 146.92146357 160.03945139 2.3474294 12.56565149-5.93761554 24.71705073-18.50326704 27.06448013-1.51892491 0.27616816-2.89976573 0.41425225-4.28060655 0.41425224m397.82024113-35.76377732H661.95931339c-12.84181965 0-24.57896666-17.39859437-24.57896666-30.24041402 0-12.84181965 11.737147-30.24041403 24.57896666-30.24041402h238.47121014c12.84181965 0 24.57896666 17.39859437 24.57896664 30.24041402 0 12.84181965-11.737147 30.24041403-24.57896664 30.24041402z" /></svg>
