<?xml version="1.0" standalone="no"?><!DOCTYPE svg PUBLIC "-//W3C//DTD SVG 1.1//EN" "http://www.w3.org/Graphics/SVG/1.1/DTD/svg11.dtd"><svg class="icon" width="200px" height="200.00px" viewBox="0 0 1024 1024" version="1.1" xmlns="http://www.w3.org/2000/svg"><path d="M760.7296 287.9488H500.48a22.8352 22.8352 0 0 1-23.0912-23.1424c0-13.0048 10.0864-23.1424 23.0912-23.1424h260.2496c13.0048 0 23.1424 10.1376 23.1424 23.1424a23.296 23.296 0 0 1-23.1424 23.1424z m0 130.8672H501.248a22.8352 22.8352 0 0 1-23.1424-23.0912c0-13.056 10.0864-23.1424 23.1424-23.1424h259.584c13.0048 0 23.1424 10.0864 23.1424 23.1424a23.4496 23.4496 0 0 1-23.2448 23.0912z m0 128h-498.176a22.8352 22.8352 0 0 1-23.0912-23.1424c0-13.0048 10.0864-23.1424 23.1424-23.1424h498.1248c13.0048 0 23.1424 10.1376 23.1424 23.1424a23.296 23.296 0 0 1-23.1424 23.1424zM690.5856 978.432H196.8128a69.376 69.376 0 0 1-69.376-69.376V114.432c0-38.3488 31.0272-69.376 69.376-69.376h633.344c38.2976 0 69.376 31.0272 69.376 69.376v645.632l-208.9472 218.368zM196.8128 90.6752a24.064 24.064 0 0 0-23.8592 23.8592v794.5216a24.064 24.064 0 0 0 23.8592 23.8592h474.2656l182.8864-190.8224V114.432a24.064 24.064 0 0 0-23.8592-23.8592H196.8128v0.1024zM681.216 978.432c-2.9184 0-5.7344-0.7168-8.704-1.4336a22.3232 22.3232 0 0 1-14.4384-21.7088v-157.696c0-38.2976 31.0272-69.376 69.376-69.376h149.6576c9.3696 0 17.3056 5.12 20.992 13.824a23.2448 23.2448 0 0 1-4.4032 24.576l-195.072 204.544c-5.12 5.12-10.8544 7.2704-17.408 7.2704z m46.2336-204.6464a24.064 24.064 0 0 0-23.8592 23.8592v101.1712l119.296-124.3136h-95.4368v-0.7168zM240.1792 341.504c0 28.8768 23.8592 52.0192 52.0192 52.0192h87.3984c28.8768 0 52.0192-23.8592 52.0192-52.0192 0-23.8592-16.6912-44.8-39.7824-50.6368 9.3696-11.5712 14.4384-26.0608 14.4384-41.1648 0-36.864-30.3104-67.9424-67.9424-67.9424-37.5808 0-67.9424 30.3104-67.9424 67.9424 0 15.2064 5.12 28.8768 13.7728 40.448-23.6544 2.9184-43.9808 24.576-43.9808 51.3536z m99.84-131.584c21.6576 0 39.7824 18.0224 39.7824 39.7824a40.1408 40.1408 0 0 1-39.7824 39.8336 40.0896 40.0896 0 0 1-39.8336-39.8336c0-21.6576 18.176-39.8336 39.8336-39.8336z m-47.7184 107.008h87.3984a23.552 23.552 0 0 1 23.9104 23.8592 24.064 24.064 0 0 1-23.9104 23.8592H292.352a23.552 23.552 0 0 1-23.8592-23.8592 23.552 23.552 0 0 1 23.8592-23.8592z m309.4016 364.288h-336.896a22.8352 22.8352 0 0 1-23.1424-23.0912c0-13.056 10.0864-23.1424 23.0912-23.1424h336.896c13.056 0 23.1936 10.0864 23.1936 23.1424a23.296 23.296 0 0 1-23.1424 23.0912z" /></svg>
