<?xml version="1.0" standalone="no"?><!DOCTYPE svg PUBLIC "-//W3C//DTD SVG 1.1//EN" "http://www.w3.org/Graphics/SVG/1.1/DTD/svg11.dtd"><svg class="icon" width="200px" height="200.00px" viewBox="0 0 1024 1024" version="1.1" xmlns="http://www.w3.org/2000/svg"><path d="M186.765 766.589H82.229c-9.957 0-17.86-8.4-17.317-18.537 2.28-39.511 10.476-132.17 40.55-174.843 45.29-64.528 194.96-42.334 236.91-100.043 4.538-6.277 5.419-23.233 5.419-36.35 0-4.9-2.078-9.619-5.758-12.915-35.83-32.174-60.17-88.46-60.69-142.85-1.218-106.704 14.338-195.165 124.676-195.165 59.967 0 91.44 27.636 107.539 70.489-20.998 8.218-39.353 20.094-54.91 35.831-25.355 25.513-41.95 59.606-51.071 104.017-6.3 30.954-9.076 67.666-8.557 115.395 0.361 36.193 8.399 73.424 23.075 108.059 11.876 27.951 27.793 52.99 46.51 73.446-3.68 2.077-8.94 4.538-16.46 7.157-17.813 6.276-40.55 10.815-64.685 15.737-61.547 12.417-131.313 26.393-169.425 80.783-12.553 17.86-22.849 40.957-31.27 69.789m772.323 151.408c0.52 10.837-8.06 20.117-18.897 20.117H237.655c-10.814 0-19.394-9.257-18.852-20.117 2.438-43.011 11.537-143.732 44.072-190.22 49.31-70.127 211.894-46.013 257.547-108.758 5.057-6.84 5.938-25.377 5.938-39.714 0-5.419-2.28-10.499-6.3-14.134-38.992-34.973-65.385-96.182-65.905-155.268-1.219-115.916 15.715-212.098 135.694-212.098 116.254 0 134.09 95.302 134.09 210.336 0 60.329-26.574 121.876-65.724 157.03-3.861 3.477-6.141 8.557-6.322 13.795-0.339 14.337 0.542 33.032 5.6 40.053 46.149 62.745 203.856 40.19 256.169 108.758 34.228 45.472 43.146 147.05 45.426 190.22" /></svg>
